# xmcd CD database file
#
# Track frame offsets:
#	150
#	14915
#	33705
#	51580
#	66107
#	86937
#	106470
#	127092
#	146372
#	165557
#
# Disc length: 2521 seconds
#
# Revision: 6
# Processed by: cddbd v1.4PL0 Copyright (c) Steve Scherf et al.
# Submitted via: jetAudio 5
#
DISCID=9909d70a
DTITLE=Dan Fogelberg - Greatest Hits
DYEAR=1900
DGENRE=
TTITLE0=Part Of The Plan
TTITLE1=Heart Hotels
TTITLE2=Hard To Say
TTITLE3=Longer
TTITLE4=Missing You
TTITLE5=The Power Of Gold
TTITLE6=Make Love Stay
TTITLE7=Leader Of The Band
TTITLE8=Run For The Roses
TTITLE9=Same Old Lang Syne
EXTD=
EXTT0=
EXTT1=
EXTT2=
EXTT3=
EXTT4=
EXTT5=
EXTT6=
EXTT7=
EXTT8=
EXTT9=
PLAYORDER=
